{
	"asset":{
		"generator":"Khronos glTF Blender I/O v3.6.28",
		"version":"2.0"
	},
	"scene":0,
	"scenes":[
		{
			"name":"Scene",
			"nodes":[
				6
			]
		}
	],
	"nodes":[
		{
			"mesh":0,
			"name":"backwheels"
		},
		{
			"mesh":1,
			"name":"front_l_wheel"
		},
		{
			"mesh":2,
			"name":"front_r_wheel"
		},
		{
			"mesh":3,
			"name":"pedal"
		},
		{
			"mesh":4,
			"name":"tractor_body"
		},
		{
			"mesh":5,
			"name":"wheel"
		},
		{
			"children":[
				0,
				1,
				2,
				3,
				4,
				5
			],
			"name":"tractor1",
			"rotation":[
				0.7071068286895752,
				0,
				0,
				0.7071068286895752
			],
			"scale":[
				0.009999999776482582,
				0.009999999776482582,
				0.009999999776482582
			]
		}
	],
	"materials":[
		{
			"doubleSided":true,
			"name":"tractor_mat",
			"pbrMetallicRoughness":{
				"metallicFactor":0,
				"roughnessFactor":0.5527864098548889
			}
		}
	],
	"meshes":[
		{
			"name":"Mesh.002",
			"primitives":[
				{
					"attributes":{
						"POSITION":0,
						"NORMAL":1,
						"TEXCOORD_0":2
					},
					"indices":3,
					"material":0
				}
			]
		},
		{
			"name":"Mesh.001",
			"primitives":[
				{
					"attributes":{
						"POSITION":4,
						"NORMAL":5,
						"TEXCOORD_0":6
					},
					"indices":7,
					"material":0
				}
			]
		},
		{
			"name":"Mesh",
			"primitives":[
				{
					"attributes":{
						"POSITION":8,
						"NORMAL":9,
						"TEXCOORD_0":10
					},
					"indices":11,
					"material":0
				}
			]
		},
		{
			"name":"Mesh.005",
			"primitives":[
				{
					"attributes":{
						"POSITION":12,
						"NORMAL":13,
						"TEXCOORD_0":14
					},
					"indices":15,
					"material":0
				}
			]
		},
		{
			"name":"Mesh.003",
			"primitives":[
				{
					"attributes":{
						"POSITION":16,
						"NORMAL":17,
						"TEXCOORD_0":18
					},
					"indices":19,
					"material":0
				}
			]
		},
		{
			"name":"Mesh.004",
			"primitives":[
				{
					"attributes":{
						"POSITION":20,
						"NORMAL":21,
						"TEXCOORD_0":22
					},
					"indices":23,
					"material":0
				}
			]
		}
	],
	"accessors":[
		{
			"bufferView":0,
			"componentType":5126,
			"count":152,
			"max":[
				176.30413818359375,
				-34.485260009765625,
				0.668595552444458
			],
			"min":[
				-177.64903259277344,
				-231.18359375,
				-196.02981567382812
			],
			"type":"VEC3"
		},
		{
			"bufferView":1,
			"componentType":5126,
			"count":152,
			"type":"VEC3"
		},
		{
			"bufferView":2,
			"componentType":5126,
			"count":152,
			"type":"VEC2"
		},
		{
			"bufferView":3,
			"componentType":5123,
			"count":576,
			"type":"SCALAR"
		},
		{
			"bufferView":4,
			"componentType":5126,
			"count":76,
			"max":[
				120.1033935546875,
				272.0281982421875,
				-0.4098201394081116
			],
			"min":[
				78.18385314941406,
				144.21835327148438,
				-128.2195587158203
			],
			"type":"VEC3"
		},
		{
			"bufferView":5,
			"componentType":5126,
			"count":76,
			"type":"VEC3"
		},
		{
			"bufferView":6,
			"componentType":5126,
			"count":76,
			"type":"VEC2"
		},
		{
			"bufferView":7,
			"componentType":5123,
			"count":288,
			"type":"SCALAR"
		},
		{
			"bufferView":8,
			"componentType":5126,
			"count":76,
			"max":[
				-78.18385314941406,
				272.0281982421875,
				-0.4098201394081116
			],
			"min":[
				-120.1033935546875,
				144.21835327148438,
				-128.2195587158203
			],
			"type":"VEC3"
		},
		{
			"bufferView":9,
			"componentType":5126,
			"count":76,
			"type":"VEC3"
		},
		{
			"bufferView":10,
			"componentType":5126,
			"count":76,
			"type":"VEC2"
		},
		{
			"bufferView":11,
			"componentType":5123,
			"count":288,
			"type":"SCALAR"
		},
		{
			"bufferView":12,
			"componentType":5126,
			"count":80,
			"max":[
				-30.098236083984375,
				67.30284881591797,
				-133.84584045410156
			],
			"min":[
				-59.2706298828125,
				-3.8302650451660156,
				-149.00640869140625
			],
			"type":"VEC3"
		},
		{
			"bufferView":13,
			"componentType":5126,
			"count":80,
			"type":"VEC3"
		},
		{
			"bufferView":14,
			"componentType":5126,
			"count":80,
			"type":"VEC2"
		},
		{
			"bufferView":15,
			"componentType":5123,
			"count":138,
			"type":"SCALAR"
		},
		{
			"bufferView":16,
			"componentType":5126,
			"count":945,
			"max":[
				145.0078125,
				305.1937255859375,
				-51.48899459838867
			],
			"min":[
				-145.0078125,
				-309.7323303222656,
				-355.5235900878906
			],
			"type":"VEC3"
		},
		{
			"bufferView":17,
			"componentType":5126,
			"count":945,
			"type":"VEC3"
		},
		{
			"bufferView":18,
			"componentType":5126,
			"count":945,
			"type":"VEC2"
		},
		{
			"bufferView":19,
			"componentType":5123,
			"count":2070,
			"type":"SCALAR"
		},
		{
			"bufferView":20,
			"componentType":5126,
			"count":133,
			"max":[
				32.66858673095703,
				26.231840133666992,
				-172.6031494140625
			],
			"min":[
				-32.6685905456543,
				-17.39659881591797,
				-230.88400268554688
			],
			"type":"VEC3"
		},
		{
			"bufferView":21,
			"componentType":5126,
			"count":133,
			"type":"VEC3"
		},
		{
			"bufferView":22,
			"componentType":5126,
			"count":133,
			"type":"VEC2"
		},
		{
			"bufferView":23,
			"componentType":5123,
			"count":360,
			"type":"SCALAR"
		}
	],
	"bufferViews":[
		{
			"buffer":0,
			"byteLength":1824,
			"byteOffset":0,
			"target":34962
		},
		{
			"buffer":0,
			"byteLength":1824,
			"byteOffset":1824,
			"target":34962
		},
		{
			"buffer":0,
			"byteLength":1216,
			"byteOffset":3648,
			"target":34962
		},
		{
			"buffer":0,
			"byteLength":1152,
			"byteOffset":4864,
			"target":34963
		},
		{
			"buffer":0,
			"byteLength":912,
			"byteOffset":6016,
			"target":34962
		},
		{
			"buffer":0,
			"byteLength":912,
			"byteOffset":6928,
			"target":34962
		},
		{
			"buffer":0,
			"byteLength":608,
			"byteOffset":7840,
			"target":34962
		},
		{
			"buffer":0,
			"byteLength":576,
			"byteOffset":8448,
			"target":34963
		},
		{
			"buffer":0,
			"byteLength":912,
			"byteOffset":9024,
			"target":34962
		},
		{
			"buffer":0,
			"byteLength":912,
			"byteOffset":9936,
			"target":34962
		},
		{
			"buffer":0,
			"byteLength":608,
			"byteOffset":10848,
			"target":34962
		},
		{
			"buffer":0,
			"byteLength":576,
			"byteOffset":11456,
			"target":34963
		},
		{
			"buffer":0,
			"byteLength":960,
			"byteOffset":12032,
			"target":34962
		},
		{
			"buffer":0,
			"byteLength":960,
			"byteOffset":12992,
			"target":34962
		},
		{
			"buffer":0,
			"byteLength":640,
			"byteOffset":13952,
			"target":34962
		},
		{
			"buffer":0,
			"byteLength":276,
			"byteOffset":14592,
			"target":34963
		},
		{
			"buffer":0,
			"byteLength":11340,
			"byteOffset":14868,
			"target":34962
		},
		{
			"buffer":0,
			"byteLength":11340,
			"byteOffset":26208,
			"target":34962
		},
		{
			"buffer":0,
			"byteLength":7560,
			"byteOffset":37548,
			"target":34962
		},
		{
			"buffer":0,
			"byteLength":4140,
			"byteOffset":45108,
			"target":34963
		},
		{
			"buffer":0,
			"byteLength":1596,
			"byteOffset":49248,
			"target":34962
		},
		{
			"buffer":0,
			"byteLength":1596,
			"byteOffset":50844,
			"target":34962
		},
		{
			"buffer":0,
			"byteLength":1064,
			"byteOffset":52440,
			"target":34962
		},
		{
			"buffer":0,
			"byteLength":720,
			"byteOffset":53504,
			"target":34963
		}
	],
	"buffers":[
		{
			"byteLength":54224,
			"uri":"data:application/octet-stream;base64,"
		}
	]
}
